# xmcd
#
# Track frame offsets:
#	150
#	18865
#	33366
#	48900
#	65364
#	84244
#	102930
#	119242
#	134982
#	156955
#	172759
#	192653
#	200257
#	218290
#	218927
#
# Disc length: 3267 seconds
#
# Revision: 0
# Processed by: cddbd v1.5.1PL0 Copyright (c) Steve Scherf et al.
# Submitted via: dBpowerAMP V4.0
#
DISCID=d20cc10f
DTITLE=The Blue Water Ramblers - Mason Street Sessions
DYEAR=1900
DGENRE=Bluegrass
TTITLE0=Standing on the Rock
TTITLE1=Pamela Brown
TTITLE2=Home Grown Tomatoes
TTITLE3=Hog Jowls, Corn Pone, Grits'n'Greens
TTITLE4=Rye Whiskey Joe
TTITLE5=Sail Away, Ladies
TTITLE6=Live in the Sun
TTITLE7=The Wreck of the Julie Plante
TTITLE8=All My Life's a Circle
TTITLE9=Roseville Fair
TTITLE10=Railroad Bill
TTITLE11=Rock Island Line
TTITLE12=I'll be All RIght
TTITLE13=Bonus Track
TTITLE14=You Ain't Goin' Nowhere
EXTD=
EXTT0=
EXTT1=
EXTT2=
EXTT3=
EXTT4=
EXTT5=
EXTT6=
EXTT7=
EXTT8=
EXTT9=
EXTT10=
EXTT11=
EXTT12=
EXTT13=
EXTT14=
PLAYORDER=
